<svg width="75" height="75" viewBox="0 0 75 75" fill="none" xmlns="http://www.w3.org/2000/svg">
<path d="M37.5001 12.5C33.3963 12.5 29.3327 13.3083 25.5412 14.8788C21.7498 16.4492 18.3048 18.7511 15.403 21.6529C9.5425 27.5134 6.2501 35.462 6.2501 43.75C6.23471 49.9393 8.07423 55.9912 11.5313 61.125C11.9955 61.8129 12.7139 62.2883 13.5285 62.4465C14.3431 62.6047 15.1872 62.4329 15.8751 61.9687C16.563 61.5046 17.0384 60.7862 17.1966 59.9716C17.3548 59.157 17.183 58.3129 16.7188 57.625C14.2017 53.8611 12.7541 49.4841 12.5306 44.9616C12.3071 40.4391 13.316 35.9408 15.4497 31.947C17.5835 27.9532 20.7618 24.6138 24.6454 22.2856C28.529 19.9573 32.972 18.7275 37.5001 18.7275C42.0281 18.7275 46.4712 19.9573 50.3548 22.2856C54.2384 24.6138 57.4167 27.9532 59.5505 31.947C61.6842 35.9408 62.6931 40.4391 62.4696 44.9616C62.2461 49.4841 60.7985 53.8611 58.2813 57.625C58.051 57.9654 57.8901 58.348 57.8079 58.7507C57.7256 59.1534 57.7236 59.5684 57.802 59.9719C57.8804 60.3754 58.0376 60.7595 58.2646 61.1021C58.4917 61.4448 58.7841 61.7393 59.1251 61.9687C59.6424 62.3164 60.2518 62.5014 60.8751 62.5C61.387 62.5008 61.8912 62.3758 62.3435 62.136C62.7957 61.8963 63.1822 61.5491 63.4688 61.125C66.926 55.9912 68.7655 49.9393 68.7501 43.75C68.7501 35.462 65.4577 27.5134 59.5972 21.6529C53.7367 15.7924 45.7881 12.5 37.5001 12.5Z" fill="#FFD057"/>
<path d="M34.5617 41.7237L34.5617 29.4377C34.5617 28.6055 34.8923 27.8074 35.4808 27.2189C36.0692 26.6305 36.8673 26.2999 37.6995 26.2999C38.5317 26.2999 39.3298 26.6305 39.9183 27.2189C40.5067 27.8074 40.8373 28.6055 40.8373 29.4377L40.8373 41.7237C41.303 41.9937 41.7334 42.3203 42.1189 42.6959C43.291 43.868 43.9495 45.4578 43.9495 47.1154C43.9495 48.773 43.291 50.3627 42.1189 51.5348C41.7334 51.9104 41.303 52.237 40.8373 52.507L40.8373 55.9542C40.839 56.3667 40.759 56.7755 40.6019 57.157C40.4448 57.5384 40.2137 57.885 39.922 58.1767C39.6303 58.4684 39.2838 58.6995 38.9023 58.8566C38.5208 59.0137 38.1121 59.0937 37.6995 59.092C37.287 59.0937 36.8782 59.0137 36.4967 58.8566C36.1153 58.6995 35.7687 58.4684 35.477 58.1767C35.1853 57.885 34.9542 57.5384 34.7971 57.157C34.6401 56.7755 34.56 56.3667 34.5617 55.9542L34.5617 52.507C34.0961 52.237 33.6656 51.9104 33.2801 51.5348C32.108 50.3627 31.4495 48.773 31.4495 47.1154C31.4495 45.4577 32.108 43.868 33.2801 42.6959C33.6656 42.3203 34.0961 41.9937 34.5617 41.7237Z" fill="#FFD057"/>
</svg>
