<svg width="75" height="75" viewBox="0 0 75 75" fill="none" xmlns="http://www.w3.org/2000/svg">
<path d="M37.5001 12.5C33.3963 12.5 29.3327 13.3083 25.5412 14.8788C21.7498 16.4492 18.3048 18.7511 15.403 21.6529C9.5425 27.5134 6.2501 35.462 6.2501 43.75C6.23471 49.9393 8.07423 55.9912 11.5313 61.125C11.9955 61.8129 12.7139 62.2883 13.5285 62.4465C14.3431 62.6047 15.1872 62.4329 15.8751 61.9687C16.563 61.5046 17.0384 60.7862 17.1966 59.9716C17.3548 59.157 17.183 58.3129 16.7188 57.625C14.2017 53.8611 12.7541 49.4841 12.5306 44.9616C12.3071 40.4391 13.316 35.9408 15.4497 31.947C17.5835 27.9532 20.7618 24.6138 24.6454 22.2856C28.529 19.9573 32.972 18.7275 37.5001 18.7275C42.0281 18.7275 46.4712 19.9573 50.3548 22.2856C54.2384 24.6138 57.4167 27.9532 59.5505 31.947C61.6842 35.9408 62.6931 40.4391 62.4696 44.9616C62.2461 49.4841 60.7985 53.8611 58.2813 57.625C58.051 57.9654 57.8901 58.348 57.8079 58.7507C57.7256 59.1534 57.7236 59.5684 57.802 59.9719C57.8804 60.3754 58.0376 60.7595 58.2646 61.1021C58.4917 61.4448 58.7841 61.7393 59.1251 61.9687C59.6424 62.3164 60.2518 62.5014 60.8751 62.5C61.387 62.5008 61.8912 62.3758 62.3435 62.136C62.7957 61.8963 63.1822 61.5491 63.4688 61.125C66.926 55.9912 68.7655 49.9393 68.7501 43.75C68.7501 35.462 65.4577 27.5134 59.5972 21.6529C53.7367 15.7924 45.7881 12.5 37.5001 12.5Z" fill="#FF4057"/>
<path d="M42.6755 46.5617L54.9615 46.5617C55.7937 46.5617 56.5918 46.8923 57.1802 47.4808C57.7687 48.0692 58.0993 48.8673 58.0993 49.6995C58.0993 50.5317 57.7687 51.3298 57.1802 51.9183C56.5918 52.5067 55.7937 52.8373 54.9615 52.8373L42.6755 52.8373C42.4055 53.303 42.0789 53.7334 41.7032 54.1189C40.5311 55.291 38.9414 55.9495 37.2838 55.9495C35.6262 55.9495 34.0365 55.291 32.8644 54.1189C32.4887 53.7334 32.1622 53.303 31.8921 52.8373L28.445 52.8373C28.0325 52.839 27.6237 52.759 27.2422 52.6019C26.8607 52.4448 26.5142 52.2137 26.2225 51.922C25.9308 51.6303 25.6997 51.2838 25.5426 50.9023C25.3855 50.5208 25.3055 50.1121 25.3072 49.6995C25.3055 49.287 25.3855 48.8782 25.5426 48.4967C25.6997 48.1153 25.9308 47.7687 26.2225 47.477C26.5142 47.1853 26.8608 46.9542 27.2422 46.7971C27.6237 46.6401 28.0324 46.56 28.445 46.5617L31.8921 46.5617C32.1622 46.0961 32.4887 45.6656 32.8644 45.2801C34.0365 44.108 35.6262 43.4495 37.2838 43.4495C38.9414 43.4495 40.5311 44.108 41.7032 45.2801C42.0789 45.6656 42.4055 46.0961 42.6755 46.5617Z" fill="#FF4057"/>
</svg>
