<svg width="75" height="75" viewBox="0 0 75 75" fill="none" xmlns="http://www.w3.org/2000/svg">
<path d="M37.5001 12.5C33.3963 12.5 29.3327 13.3083 25.5412 14.8788C21.7498 16.4492 18.3048 18.7511 15.403 21.6529C9.5425 27.5134 6.2501 35.462 6.2501 43.75C6.23471 49.9393 8.07423 55.9912 11.5313 61.125C11.9955 61.8129 12.7139 62.2883 13.5285 62.4465C14.3431 62.6047 15.1872 62.4329 15.8751 61.9687C16.563 61.5046 17.0384 60.7862 17.1966 59.9716C17.3548 59.157 17.183 58.3129 16.7188 57.625C14.2017 53.8611 12.7541 49.4841 12.5306 44.9616C12.3071 40.4391 13.316 35.9408 15.4497 31.947C17.5835 27.9532 20.7618 24.6138 24.6454 22.2856C28.529 19.9573 32.972 18.7275 37.5001 18.7275C42.0281 18.7275 46.4712 19.9573 50.3548 22.2856C54.2384 24.6138 57.4167 27.9532 59.5505 31.947C61.6842 35.9408 62.6931 40.4391 62.4696 44.9616C62.2461 49.4841 60.7985 53.8611 58.2813 57.625C58.051 57.9654 57.8901 58.348 57.8079 58.7507C57.7256 59.1534 57.7236 59.5684 57.802 59.9719C57.8804 60.3754 58.0376 60.7595 58.2646 61.1021C58.4917 61.4448 58.7841 61.7393 59.1251 61.9687C59.6424 62.3164 60.2518 62.5014 60.8751 62.5C61.387 62.5008 61.8912 62.3758 62.3435 62.136C62.7957 61.8963 63.1822 61.5491 63.4688 61.125C66.926 55.9912 68.7655 49.9393 68.7501 43.75C68.7501 35.462 65.4577 27.5134 59.5972 21.6529C53.7367 15.7924 45.7881 12.5 37.5001 12.5Z" fill="#30DA83"/>
<path d="M32.2247 50.6362L20.1033 48.6322C19.2822 48.4965 18.5487 48.0401 18.0641 47.3636C17.5795 46.687 17.3836 45.8457 17.5193 45.0246C17.655 44.2036 18.1114 43.4701 18.7879 42.9855C19.4645 42.5009 20.3058 42.3049 21.1269 42.4407L33.2483 44.4447C33.5907 44.0293 33.9831 43.6579 34.4166 43.3388C35.7642 42.3736 37.44 41.9832 39.0754 42.2536C40.7108 42.5239 42.1719 43.4329 43.1371 44.7805C43.4448 45.2221 43.6968 45.7001 43.8873 46.2035L47.2883 46.7658C47.6955 46.8314 48.0858 46.977 48.4365 47.1942C48.7873 47.4114 49.0915 47.696 49.3317 48.0313C49.5719 48.3667 49.7434 48.7463 49.8362 49.1483C49.9289 49.5503 49.9412 49.9666 49.8722 50.3734C49.8066 50.7807 49.661 51.1709 49.4438 51.5217C49.2266 51.8724 48.9421 52.1766 48.6067 52.4168C48.2713 52.6571 47.8917 52.8285 47.4897 52.9213C47.0877 53.014 46.6714 53.0263 46.2646 52.9573L42.8637 52.3951C42.5213 52.8104 42.1289 53.1819 41.6954 53.5009C40.3478 54.4662 38.672 54.8565 37.0365 54.5862C35.4011 54.3158 33.9401 53.4068 32.9749 52.0592C32.6672 51.6176 32.4152 51.1396 32.2247 50.6362Z" fill="#30DA83"/>
</svg>
